<svg width="25" height="24" viewBox="0 0 25 24" fill="none" xmlns="http://www.w3.org/2000/svg">
<path d="M16.6641 8C18.2554 8 19.7815 8.63214 20.9067 9.75736C22.0319 10.8826 22.6641 12.4087 22.6641 14V21H18.6641V14C18.6641 13.4696 18.4533 12.9609 18.0783 12.5858C17.7032 12.2107 17.1945 12 16.6641 12C16.1336 12 15.6249 12.2107 15.2498 12.5858C14.8748 12.9609 14.6641 13.4696 14.6641 14V21H10.6641V14C10.6641 12.4087 11.2962 10.8826 12.4214 9.75736C13.5466 8.63214 15.0728 8 16.6641 8Z" stroke="#1E2939" stroke-width="2" stroke-linecap="round" stroke-linejoin="round"/>
<path d="M6.66406 9H2.66406V21H6.66406V9Z" stroke="#1E2939" stroke-width="2" stroke-linecap="round" stroke-linejoin="round"/>
<path d="M4.66406 6C5.76863 6 6.66406 5.10457 6.66406 4C6.66406 2.89543 5.76863 2 4.66406 2C3.55949 2 2.66406 2.89543 2.66406 4C2.66406 5.10457 3.55949 6 4.66406 6Z" stroke="#1E2939" stroke-width="2" stroke-linecap="round" stroke-linejoin="round"/>
</svg>
