<svg xmlns="http://www.w3.org/2000/svg" fill="none" viewBox="-0.855 -0.855 24 24" id="Customer-Support-1--Streamline-Core" height="24" width="24">
  <desc>
    Customer Support 1 Streamline Icon: https://streamlinehq.com
  </desc>
  <g id="customer-support-1--customer-headset-help-microphone-phone-support">
    <path id="Vector" stroke="#ffffff" stroke-linecap="round" stroke-linejoin="round" d="M4.776428571428571 11.145031842857142v-4.187335714285714c0.012434635714285713 -0.8230900928571429 0.18715639285714286 -1.6356242785714283 0.5141666142857143 -2.3910801428571427 0.3269943 -0.7554399428571429 0.7998607285714286 -1.4389309499999998 1.3914691714285714 -2.0113222285714283 0.5916084428571429 -0.5723753571428571 1.2903521785714285 -1.0224024964285714 2.056188814285714 -1.3242775585714286C9.504073885714286 0.9291427285714285 10.32195767142857 0.7813488835714285 11.145 0.7961048635714286 11.968042328571428 0.7813488835714285 12.785926114285713 0.9291427285714285 13.551746828571428 1.2310161985714285c0.7658366357142857 0.30187506214285714 1.4645803714285714 0.7519022014285714 2.056188814285714 1.3242775585714286 0.5916402857142856 0.5723912785714286 1.0645067142857143 1.2558822857142855 1.3915328571428571 2.0113222285714283 0.32686692857142857 0.7554558642857143 0.5016842142857143 1.56799005 0.5141029285714286 2.3910801428571427v4.187335714285714" stroke-width="1.71"></path>
    <path id="Vector_2" stroke="#ffffff" stroke-linecap="round" stroke-linejoin="round" d="M2.3882142857142856 8.756785714285714h1.592142857142857c0.2111340642857143 0 0.4136227928571429 0.0838740857142857 0.562902107142857 0.2331693214285714C4.692554485714285 9.13923435 4.776428571428571 9.341723078571428 4.776428571428571 9.552857142857142v4.776428571428571c0 0.2111340642857143 -0.0838740857142857 0.4136227928571429 -0.2331693214285714 0.562902107142857C4.3939799357142855 15.041483057142855 4.191491207142858 15.125357142857142 3.9803571428571427 15.125357142857142h-1.592142857142857c-0.4222681285714286 0 -0.8272296642857142 -0.1677481714285714 -1.1258153592857143 -0.4663227214285714C0.9638148235714286 14.360443949999999 0.7960714285714285 13.955482414285713 0.7960714285714285 13.533214285714285v-3.184285714285714c0 -0.4222681285714286 0.167743395 -0.8272296642857142 0.46632749785714284 -1.1258201357142856C1.5609846214285714 8.924533885714286 1.9659461571428571 8.756785714285714 2.3882142857142856 8.756785714285714v0Z" stroke-width="1.71"></path>
    <path id="Vector_3" stroke="#ffffff" stroke-linecap="round" stroke-linejoin="round" d="M19.901785714285715 15.125357142857142h-1.592142857142857c-0.21111814285714284 0 -0.41363871428571425 -0.0838740857142857 -0.5629817142857143 -0.2331693214285714C17.597477357142857 14.742908507142857 17.513571428571428 14.540419778571428 17.513571428571428 14.329285714285714V9.552857142857142c0 -0.2111340642857143 0.08390592857142856 -0.4136227928571429 0.2330897142857143 -0.562902107142857 0.14934299999999998 -0.1492952357142857 0.35186357142857144 -0.2331693214285714 0.5629817142857143 -0.2331693214285714h1.592142857142857c0.4222362857142857 0 0.8272774285714285 0.1677481714285714 1.125804214285714 0.4663227214285714 0.2985267857142857 0.2985904714285714 0.4663386428571428 0.7035520071428571 0.4663386428571428 1.1258201357142856v3.184285714285714c0 0.4222681285714286 -0.16781185714285712 0.8272296642857142 -0.4663386428571428 1.1258201357142856 -0.2985267857142857 0.29857455 -0.7035679285714286 0.4663227214285714 -1.125804214285714 0.4663227214285714v0Z" stroke-width="1.71"></path>
    <path id="Vector_4" stroke="#ffffff" stroke-linecap="round" stroke-linejoin="round" d="M14.329285714285714 19.50375c0.8445203357142856 0 1.6543956428571427 -0.3354645 2.251608428571428 -0.9326772857142857S17.513571428571428 17.163936857142858 17.513571428571428 16.319464285714286V12.737142857142857" stroke-width="1.71"></path>
    <path id="Vector_5" stroke="#ffffff" stroke-linecap="round" stroke-linejoin="round" d="M14.329285714285714 19.50375c0 0.5277953571428572 -0.2096852142857143 1.0340967857142855 -0.5829153428571429 1.4072950714285715 -0.37323012857142857 0.3731982857142857 -0.8794360285714284 0.5828835 -1.4072632285714286 0.5828835h-2.3882142857142856c-0.5278271999999999 0 -1.0340331 -0.2096852142857143 -1.4072632285714286 -0.5828835C8.1703995 20.537846785714283 7.960714285714285 20.031545357142857 7.960714285714285 19.50375s0.2096852142857143 -1.0340967857142855 0.5829153428571429 -1.4072950714285715C8.916859757142856 17.723256642857145 9.423065657142857 17.513571428571428 9.950892857142858 17.513571428571428h2.3882142857142856c0.5278271999999999 0 1.0340331 0.2096852142857143 1.4072632285714286 0.5828835 0.37323012857142857 0.3731982857142857 0.5829153428571429 0.8794997142857143 0.5829153428571429 1.4072950714285715Z" stroke-width="1.71"></path>
  </g>
</svg>