<svg viewBox="0 0 24 24" fill="none" xmlns="http://www.w3.org/2000/svg" id="Suitcase--Streamline-Unicons" height="24" width="24">
  <desc>
    Suitcase Streamline Icon: https://streamlinehq.com
  </desc>
  <path d="M20.232 5.532h-3.528V4.356c0 -0.9357 -0.3717 -1.833 -1.0333 -2.4947C15.009 1.1997 14.1116 0.828 13.176 0.828h-2.352c-0.9356 0 -1.833 0.3717 -2.4947 1.0333 -0.6616 0.6617 -1.0333 1.559 -1.0333 2.4947v1.176H3.768c-0.9357 0 -1.833 0.3717 -2.4947 1.0333C0.6117 7.227 0.24 8.1243 0.24 9.06v10.584c0 0.9356 0.3717 1.833 1.0333 2.4947 0.6617 0.6616 1.559 1.0333 2.4947 1.0333h16.464c0.9356 0 1.833 -0.3717 2.4947 -1.0333 0.6616 -0.6617 1.0333 -1.5591 1.0333 -2.4947V9.06c0 -0.9357 -0.3717 -1.833 -1.0333 -2.4947 -0.6617 -0.6616 -1.5591 -1.0333 -2.4947 -1.0333ZM9.648 4.356c0 -0.3119 0.124 -0.611 0.3445 -0.8316 0.2205 -0.2205 0.5196 -0.3444 0.8315 -0.3444h2.352c0.3119 0 0.6111 0.1239 0.8316 0.3444 0.2205 0.2206 0.3444 0.5197 0.3444 0.8316v1.176H9.648V4.356Zm11.76 15.288c0 0.3119 -0.1239 0.6111 -0.3444 0.8316s-0.5197 0.3444 -0.8316 0.3444H3.768c-0.3119 0 -0.611 -0.1239 -0.8316 -0.3444 -0.2205 -0.2205 -0.3444 -0.5197 -0.3444 -0.8316v-5.9388H6.12V14.94c0 0.3119 0.1239 0.6111 0.3444 0.8316 0.2206 0.2205 0.5197 0.3444 0.8316 0.3444s0.611 -0.1239 0.8316 -0.3444c0.2205 -0.2205 0.3444 -0.5197 0.3444 -0.8316v-1.2348h7.056V14.94c0 0.3119 0.124 0.6111 0.3445 0.8316s0.5196 0.3444 0.8315 0.3444c0.3119 0 0.6111 -0.1239 0.8316 -0.3444s0.3444 -0.5197 0.3444 -0.8316v-1.2348h3.528v5.9388Zm0 -8.232H2.592V9.06c0 -0.3119 0.1239 -0.611 0.3444 -0.8316 0.2206 -0.2205 0.5197 -0.3444 0.8316 -0.3444h16.464c0.3119 0 0.611 0.1239 0.8316 0.3444 0.2205 0.2206 0.3444 0.5197 0.3444 0.8316v2.352Z" fill="#FFFFFF" strokeWidth="1"></path>
</svg>