<svg xmlns="http://www.w3.org/2000/svg" fill="none" viewBox="0 0 24 24" id="Digital-Wellbeing--Streamline-Sharp-Material" height="24" width="24">
  <desc>
    Digital Wellbeing Streamline Icon: https://streamlinehq.com
  </desc>
  <path fill="#FFFFFF" d="M12 8.7c-0.92515 0 -1.71485 -0.327 -2.369 -0.981 -0.654 -0.65415 -0.981 -1.44385 -0.981 -2.369 0 -0.925165 0.327 -1.714835 0.981 -2.369C10.28515 2.327 11.07485 2 12 2c0.92515 0 1.71485 0.327 2.369 0.981C15.023 3.635165 15.35 4.424835 15.35 5.35c0 0.92515 -0.327 1.71485 -0.981 2.369C13.71485 8.373 12.92515 8.7 12 8.7Zm0 -1.5c0.55 0 0.99585 -0.17085 1.3375 -0.5125 0.34165 -0.34165 0.5125 -0.7875 0.5125 -1.3375 0 -0.55 -0.17085 -0.995835 -0.5125 -1.3375C12.99585 3.670835 12.55 3.5 12 3.5c-0.55 0 -0.99585 0.170835 -1.3375 0.5125C10.32085 4.354165 10.15 4.8 10.15 5.35c0 0.55 0.17085 0.99585 0.5125 1.3375 0.34165 0.34165 0.7875 0.5125 1.3375 0.5125ZM12 22 6 16c-0.3 -0.3 -0.54165 -0.67085 -0.725 -1.1125 -0.18335 -0.44165 -0.275 -0.95415 -0.275 -1.5375 0 -0.93335 0.32915 -1.72915 0.9875 -2.3875 0.65835 -0.65835 1.45415 -0.9875 2.3875 -0.9875 0.44 0 0.84585 0.1 1.2175 0.3 0.37165 0.2 0.69915 0.44165 0.9825 0.725L12 12.425 13.425 11c0.28335 -0.28335 0.61085 -0.525 0.9825 -0.725 0.37165 -0.2 0.7775 -0.3 1.2175 -0.3 0.93335 0 1.72915 0.32915 2.3875 0.9875C18.67085 11.62085 19 12.41665 19 13.35c0 0.58335 -0.09165 1.09585 -0.275 1.5375 -0.18335 0.44165 -0.425 0.8125 -0.725 1.1125L12 22Zm0 -2.175 4.9 -4.9c0.2 -0.19685 0.35 -0.4211 0.45 -0.67275 0.1 -0.2515 0.15 -0.55225 0.15 -0.90225 0 -0.5 -0.1875 -0.9375 -0.5625 -1.3125s-0.8134 -0.5625 -1.31525 -0.5625c-0.2315 0 -0.44725 0.04165 -0.64725 0.125 -0.2 0.08335 -0.36665 0.19165 -0.5 0.325L12 14.4l-2.475 -2.475c-0.13335 -0.13335 -0.3 -0.24165 -0.5 -0.325 -0.2 -0.08335 -0.41665 -0.125 -0.65 -0.125 -0.5 0 -0.9375 0.1875 -1.3125 0.5625S6.5 12.85 6.5 13.35c0 0.35 0.05 0.65 0.15 0.9 0.1 0.25 0.25 0.475 0.45 0.675l4.9 4.9Z" strokeWidth="0.5"></path>
</svg>